<svg width="32" height="33" viewBox="0 0 32 33" fill="none" xmlns="http://www.w3.org/2000/svg">
<g clip-path="url(#clip0_5_206)">
<path d="M15.9999 17.6171C18.5726 17.6171 20.6666 15.5238 20.6666 12.9504V9.61711H19.3333V12.9504C19.3333 14.7884 17.8379 16.2838 15.9999 16.2838C14.1619 16.2838 12.6666 14.7884 12.6666 12.9504V9.61711H11.3333V12.9504C11.3333 15.5238 13.4273 17.6171 15.9999 17.6171Z" fill="white"/>
<path d="M2.66663 27.6171C2.66663 29.0838 3.86663 30.2838 5.33329 30.2838H26.6666C28.1333 30.2838 29.3333 29.0838 29.3333 27.6171V3.61711H2.66663V27.6171ZM3.99996 4.95044H28V27.6171C28 28.3524 27.402 28.9504 26.6666 28.9504H5.33329C4.59796 28.9504 3.99996 28.3524 3.99996 27.6171V4.95044Z" fill="white"/>
</g>
<defs>
<clipPath id="clip0_5_206">
<rect width="32" height="32" fill="white" transform="translate(0 0.950439)"/>
</clipPath>
</defs>
</svg>
