<svg width="25" height="24" viewBox="0 0 25 24" fill="none" xmlns="http://www.w3.org/2000/svg">
<g clip-path="url(#clip0_1_1227)">
<path d="M11.1283 14.054C12.7971 14.054 14.1554 12.6962 14.1554 11.027V8.86481H13.2905V11.027C13.2905 12.2192 12.3206 13.1891 11.1283 13.1891C9.93613 13.1891 8.96618 12.2192 8.96618 11.027V8.86481H8.10132V11.027C8.10132 12.6962 9.45959 14.054 11.1283 14.054Z" fill="white"/>
<path d="M2.47974 20.5405C2.47974 21.4918 3.25811 22.2702 4.20947 22.2702H18.0473C18.9987 22.2702 19.777 21.4918 19.777 20.5405V4.9729H2.47974V20.5405ZM3.3446 5.83777H18.9122V20.5405C18.9122 21.0174 18.5243 21.4053 18.0473 21.4053H4.20947C3.73249 21.4053 3.3446 21.0174 3.3446 20.5405V5.83777Z" fill="white"/>
</g>
<circle cx="19.5608" cy="5.18919" r="5.18919" fill="#DD1E24"/>
<g clip-path="url(#clip1_1_1227)">
<path d="M19.8491 2.88275H19.2725V4.90077H17.2545V5.47735H19.2725V7.49536H19.8491V5.47735H21.8671V4.90077H19.8491V2.88275Z" fill="white"/>
</g>
<defs>
<clipPath id="clip0_1_1227">
<rect width="20.7568" height="20.7568" fill="white" transform="translate(0.75 3.24316)"/>
</clipPath>
<clipPath id="clip1_1_1227">
<rect width="6.91892" height="6.91892" fill="white" transform="translate(16.1013 1.72961)"/>
</clipPath>
</defs>
</svg>
