<svg width="25" height="24" viewBox="0 0 25 24" fill="none" xmlns="http://www.w3.org/2000/svg">
<g clip-path="url(#clip0_1_1007)">
<path d="M20.5 4H4.5C3.4 4 2.5 4.9 2.5 6V18C2.5 19.1 3.4 20 4.5 20H20.5C21.6 20 22.5 19.1 22.5 18V6C22.5 4.9 21.6 4 20.5 4ZM4.5 5H20.5C20.8505 5 21.1585 5.182 21.337 5.456L12.5 14.293L3.663 5.456C3.8415 5.182 4.1495 5 4.5 5ZM20.5 19H4.5C3.9485 19 3.5 18.5515 3.5 18V6.707L12.5 15.707L21.5 6.707V18C21.5 18.5515 21.0515 19 20.5 19Z" fill="#0E0303"/>
</g>
<defs>
<clipPath id="clip0_1_1007">
<rect width="24" height="24" fill="white" transform="translate(0.5)"/>
</clipPath>
</defs>
</svg>
