<svg width="32" height="32" viewBox="0 0 32 32" fill="none" xmlns="http://www.w3.org/2000/svg">
<path d="M11.3343 15.6595C11.3343 13.2677 13.2739 11.3282 15.6672 11.3282C18.0604 11.3282 20.001 13.2677 20.001 15.6595C20.001 18.0513 18.0604 19.9907 15.6672 19.9907C13.2739 19.9907 11.3343 18.0513 11.3343 15.6595ZM8.99155 15.6595C8.99155 19.3442 11.9802 22.3311 15.6672 22.3311C19.3541 22.3311 22.3428 19.3442 22.3428 15.6595C22.3428 11.9747 19.3541 8.98786 15.6672 8.98786C11.9802 8.98786 8.99155 11.9747 8.99155 15.6595ZM21.047 8.72333C21.0469 9.0317 21.1382 9.33318 21.3096 9.58964C21.4809 9.84611 21.7244 10.046 22.0095 10.1642C22.2945 10.2823 22.6081 10.3133 22.9108 10.2532C23.2134 10.1932 23.4915 10.0448 23.7097 9.82687C23.928 9.60891 24.0767 9.33115 24.137 9.02874C24.1973 8.72632 24.1666 8.41282 24.0486 8.12788C23.9306 7.84294 23.7308 7.59936 23.4743 7.42794C23.2178 7.25651 22.9162 7.16495 22.6077 7.16483H22.607C22.1935 7.16502 21.7969 7.32926 21.5043 7.62148C21.2118 7.9137 21.0473 8.30999 21.047 8.72333ZM10.415 26.2352C9.14745 26.1775 8.45853 25.9665 8.0007 25.7883C7.39373 25.5521 6.96066 25.2709 6.50533 24.8164C6.05 24.362 5.76815 23.9296 5.53289 23.323C5.35442 22.8657 5.14329 22.1769 5.08567 20.9102C5.02265 19.5407 5.01006 19.1293 5.01006 15.6596C5.01006 12.1899 5.02369 11.7796 5.08567 10.409C5.1434 9.14222 5.35608 8.45485 5.53289 7.99616C5.76919 7.38955 6.05062 6.95674 6.50533 6.50168C6.96004 6.04662 7.39269 5.76494 8.0007 5.52982C8.45832 5.35146 9.14745 5.14046 10.415 5.08288C11.7853 5.01989 12.197 5.00731 15.6672 5.00731C19.1374 5.00731 19.5494 5.02093 20.9209 5.08288C22.1884 5.14056 22.8762 5.35312 23.3352 5.52982C23.9422 5.76494 24.3752 6.04725 24.8306 6.50168C25.2859 6.95611 25.5667 7.38955 25.803 7.99616C25.9815 8.4535 26.1926 9.14222 26.2502 10.409C26.3132 11.7796 26.3258 12.1899 26.3258 15.6596C26.3258 19.1293 26.3132 19.5395 26.2502 20.9102C26.1925 22.1769 25.9803 22.8654 25.803 23.323C25.5667 23.9296 25.2853 24.3624 24.8306 24.8164C24.3758 25.2705 23.9422 25.5521 23.3352 25.7883C22.8776 25.9667 22.1884 26.1777 20.9209 26.2352C19.5506 26.2982 19.1389 26.3108 15.6672 26.3108C12.1954 26.3108 11.7849 26.2982 10.415 26.2352ZM10.3073 2.74543C8.92332 2.80842 7.97761 3.02774 7.15172 3.34892C6.29639 3.6806 5.57231 4.12557 4.84875 4.84755C4.1252 5.56953 3.6811 6.29432 3.34922 7.14913C3.02785 7.97506 2.8084 8.91968 2.74537 10.3028C2.68131 11.6882 2.66664 12.1311 2.66664 15.6595C2.66664 19.1879 2.68131 19.6308 2.74537 21.0161C2.8084 22.3994 3.02785 23.3439 3.34922 24.1698C3.6811 25.0241 4.1253 25.7497 4.84875 26.4714C5.57221 27.1931 6.29639 27.6374 7.15172 27.97C7.97917 28.2912 8.92332 28.5105 10.3073 28.5735C11.6942 28.6365 12.1366 28.6522 15.6672 28.6522C19.1977 28.6522 19.6408 28.6375 21.027 28.5735C22.4111 28.5105 23.3562 28.2912 24.1826 27.97C25.0374 27.6374 25.762 27.1934 26.4856 26.4714C27.2091 25.7494 27.6523 25.0241 27.9851 24.1698C28.3065 23.3439 28.527 22.3993 28.589 21.0161C28.652 19.6297 28.6666 19.1879 28.6666 15.6595C28.6666 12.1311 28.652 11.6882 28.589 10.3028C28.5259 8.91957 28.3065 7.97454 27.9851 7.14913C27.6523 6.29484 27.208 5.57067 26.4856 4.84755C25.7632 4.12443 25.0374 3.6806 24.1836 3.34892C23.3562 3.02774 22.411 2.80738 21.0281 2.74543C19.6419 2.68244 19.1987 2.66675 15.6682 2.66675C12.1377 2.66675 11.6942 2.6814 10.3073 2.74543Z" fill="#DD1E24"/>
</svg>
