<svg width="32" height="32" viewBox="0 0 32 32" fill="none" xmlns="http://www.w3.org/2000/svg">
<g clip-path="url(#clip0_1_811)">
<path d="M5.62929 18L16 28L26.3706 18C28.1706 16.6447 29.3333 14.496 29.3333 12.074C29.3333 7.98533 26.0146 4.66667 21.926 4.66667C19.504 4.66667 17.348 5.83733 16 7.63733C14.652 5.83733 12.496 4.66667 10.074 4.66667C5.98529 4.66667 2.66663 7.98533 2.66663 12.074C2.66663 14.496 3.82929 16.6447 5.62929 18ZM10.074 6C11.974 6 13.79 6.91067 14.9326 8.436L16 9.86133L17.0673 8.43667C18.21 6.91067 20.026 6 21.926 6C25.2753 6 28 8.72467 28 12.074C28 13.9993 27.114 15.7713 25.568 16.9347L25.5033 16.9833L25.4446 17.04L16 26.148L6.55529 17.04L6.49663 16.9833L6.43196 16.9347C4.88663 15.7713 3.99996 13.9993 3.99996 12.074C3.99996 8.72467 6.72463 6 10.074 6Z" fill="white"/>
</g>
<defs>
<clipPath id="clip0_1_811">
<rect width="32" height="32" fill="white"/>
</clipPath>
</defs>
</svg>
