<svg width="32" height="33" viewBox="0 0 32 33" fill="none" xmlns="http://www.w3.org/2000/svg">
<g clip-path="url(#clip0_5_201)">
<path d="M12 22.2838C14.3373 22.2838 16.4686 21.4184 18.106 19.9991L26.6666 28.5598L27.6093 27.6171L19.0486 19.0564C20.468 17.4191 21.3333 15.2878 21.3333 12.9504C21.3333 7.79577 17.1546 3.61711 12 3.61711C6.84529 3.61711 2.66663 7.79577 2.66663 12.9504C2.66663 18.1051 6.84529 22.2838 12 22.2838ZM12 4.95044C16.4113 4.95044 20 8.53911 20 12.9504C20 17.3618 16.4113 20.9504 12 20.9504C7.58863 20.9504 3.99996 17.3618 3.99996 12.9504C3.99996 8.53911 7.58863 4.95044 12 4.95044Z" fill="white"/>
</g>
<defs>
<clipPath id="clip0_5_201">
<rect width="32" height="32" fill="white" transform="translate(0 0.950439)"/>
</clipPath>
</defs>
</svg>
