<svg width="25" height="25" viewBox="0 0 25 25" fill="none" xmlns="http://www.w3.org/2000/svg">
<path d="M7.13609 22.4561L8.13608 22.454C8.13083 19.9725 10.1456 17.9497 12.6265 17.9445L12.6244 16.9445C10.1434 16.9497 8.12017 14.9355 8.11492 12.454L7.11492 12.4561C7.12017 14.9376 5.10545 16.9604 2.62445 16.9656L2.62657 17.9656C5.10757 17.9604 7.13083 19.9746 7.13609 22.4561ZM7.61977 14.7455C8.17179 15.9394 9.13933 16.9023 10.3345 17.4493C9.14116 18.0013 8.17821 18.9684 7.63124 20.1645C7.07921 18.9707 6.11167 18.0077 4.91651 17.4608C6.10934 16.9088 7.0728 15.9417 7.61977 14.7455Z" fill="#565656"/>
<path d="M20.1228 16.4286L19.1228 16.4307L19.1281 18.9307L16.6286 18.936L16.6308 19.936L19.1303 19.9307L19.1355 22.4307L20.1355 22.4286L20.1303 19.9286L22.6307 19.9233L22.6286 18.9233L20.1281 18.9286L20.1228 16.4286Z" fill="#565656"/>
<path d="M18.0937 2.43282L17.0937 2.43493C17.099 4.91643 15.0843 6.9392 12.6033 6.94445L12.6054 7.94445C15.0864 7.93919 17.1097 9.95342 17.1149 12.4349L18.1149 12.4328C18.1097 9.9513 20.1244 7.92853 22.6054 7.92328L22.6033 6.92328C20.1223 6.92853 18.099 4.91431 18.0937 2.43282ZM17.6101 10.1434C17.058 8.94952 16.0905 7.98657 14.8953 7.4396C16.0887 6.88757 17.0516 5.92053 17.5986 4.72437C18.1506 5.9182 19.1182 6.88116 20.3133 7.42813C19.1205 7.98015 18.157 8.9472 17.6101 10.1434Z" fill="#565656"/>
<path d="M5.10695 8.46033L6.10694 8.45821L6.10165 5.95822L8.60115 5.95293L8.59903 4.95293L6.09953 4.95822L6.09424 2.45823L5.09424 2.46034L5.09954 4.96034L2.59904 4.96563L2.60116 5.96563L5.10165 5.96034L5.10695 8.46033Z" fill="#565656"/>
</svg>
