<svg width="32" height="32" viewBox="0 0 32 32" fill="none" xmlns="http://www.w3.org/2000/svg">
<path d="M28.5511 7.90789C27.71 8.26984 26.8258 8.52189 25.9204 8.65779C26.3437 8.58522 26.9666 7.82322 27.2145 7.5148C27.5912 7.04956 27.8783 6.51846 28.0612 5.94847C28.0612 5.90614 28.1035 5.84566 28.0612 5.81543C28.0399 5.80378 28.016 5.79768 27.9916 5.79768C27.9673 5.79768 27.9434 5.80378 27.9221 5.81543C26.9389 6.34787 25.8925 6.75425 24.8076 7.02494C24.7698 7.03649 24.7295 7.03753 24.6912 7.02794C24.6528 7.01835 24.6178 6.9985 24.5899 6.97052C24.5054 6.86996 24.4145 6.77502 24.3177 6.68628C23.8753 6.28983 23.3732 5.96535 22.83 5.72471C22.0968 5.42389 21.3048 5.29361 20.5138 5.34372C19.7463 5.39219 18.997 5.59804 18.3125 5.94847C17.6384 6.31793 17.046 6.81986 16.5708 7.42408C16.0709 8.04599 15.7101 8.76772 15.5125 9.54074C15.3495 10.276 15.331 11.036 15.458 11.7783C15.458 11.9053 15.458 11.9235 15.3492 11.9053C11.0373 11.2703 7.49942 9.74031 4.60867 6.45647C4.48167 6.31133 4.41515 6.31133 4.31234 6.45647C3.05444 8.36751 3.66525 11.3913 5.23762 12.8851C5.44929 13.0846 5.667 13.2781 5.89681 13.4596C5.17588 13.4084 4.47257 13.213 3.82853 12.8851C3.70758 12.8064 3.64106 12.8488 3.63501 12.9939C3.61787 13.1951 3.61787 13.3974 3.63501 13.5987C3.7612 14.563 4.14124 15.4765 4.73628 16.2458C5.33131 17.0151 6.11999 17.6126 7.02166 17.9771C7.24146 18.0713 7.4705 18.1422 7.70503 18.1888C7.03764 18.3202 6.35314 18.3406 5.67909 18.2493C5.53395 18.219 5.47952 18.2976 5.53395 18.4367C6.42295 20.8558 8.35213 21.5936 9.76726 22.0048C9.96078 22.035 10.1543 22.035 10.372 22.0834C10.372 22.0834 10.372 22.0834 10.3357 22.1197C9.91845 22.8817 8.23117 23.3958 7.45708 23.6618C6.04417 24.1694 4.53774 24.3633 3.04235 24.2303C2.80649 24.194 2.75206 24.2001 2.69159 24.2303C2.63111 24.2606 2.69159 24.3271 2.75811 24.3876C3.06049 24.5871 3.36287 24.7625 3.67734 24.9318C4.61354 25.4425 5.60328 25.8481 6.62856 26.1414C11.9383 27.6049 17.9134 26.5284 21.8987 22.5672C25.0314 19.4588 26.132 15.171 26.132 10.8773C26.132 10.714 26.3316 10.6172 26.4465 10.5325C27.239 9.91502 27.9378 9.18574 28.5208 8.36751C28.6218 8.24554 28.6736 8.09024 28.666 7.93208C28.666 7.84137 28.666 7.85951 28.5511 7.90789Z" fill="#DD1E24"/>
</svg>
